<svg width="80" height="48" viewBox="0 0 80 48" fill="none" xmlns="http://www.w3.org/2000/svg">
    <g clip-path="url(#clip0_17_126)">
        <path d="M2.81079 3.78125V5.625L0 6.5V4.6875L2.81079 3.78125Z" fill="currentColor" fill-opacity="0.4"/>
        <path d="M2.52148 9.75V11.4062L0.248047 12.1875V10.5625L2.52148 9.75Z" fill="currentColor" fill-opacity="0.4"/>
        <path d="M2.52148 15.75V17.375L0.248047 18.1563V16.5313L2.52148 15.75Z" fill="currentColor" fill-opacity="0.4"/>
        <path d="M2.81079 21.6562V23.5L0 24.375V22.5938L2.81079 21.6562Z" fill="currentColor" fill-opacity="0.4"/>
        <path d="M2.52148 27.875V29.4687L0.248047 30.25V28.625L2.52148 27.875Z" fill="currentColor" fill-opacity="0.4"/>
        <path d="M2.52148 33.9375V35.5625L0.248047 36.3438V34.75L2.52148 33.9375Z" fill="currentColor" fill-opacity="0.4"/>
        <path d="M2.81079 39.7812V41.6562L0 42.5312V40.75L2.81079 39.7812Z" fill="currentColor" fill-opacity="0.4"/>
        <path d="M9.92051 4.8125V6.96875L6.11768 8.0625V5.9375L9.92051 4.8125Z" fill="currentColor" fill-opacity="0.55"/>
        <path d="M9.71359 11.0625V13.0313L6.65479 13.9375V11.9688L9.71359 11.0625Z" fill="currentColor" fill-opacity="0.55"/>
        <path d="M9.71359 17.0938V19.0312L6.65479 19.9375V17.9375L9.71359 17.0938Z" fill="currentColor" fill-opacity="0.55"/>
        <path d="M9.92051 22.9062V25.0312L6.11768 26.1562V24.0312L9.92051 22.9062Z" fill="currentColor" fill-opacity="0.55"/>
        <path d="M9.71359 29.1562V31.0938L6.65479 32.0313V30.0313L9.71359 29.1562Z" fill="currentColor" fill-opacity="0.55"/>
        <path d="M9.71359 35.25V37.1875L6.65479 38.125V36.1563L9.71359 35.25Z" fill="currentColor" fill-opacity="0.55"/>
        <path d="M9.92051 41.0938V43.2188L6.11768 44.4063V42.2813L9.92051 41.0938Z" fill="currentColor" fill-opacity="0.55"/>
        <path d="M17.0302 6.15625V8.71875L12.1113 10.1875V7.65625L17.0302 6.15625Z" fill="currentColor" fill-opacity="0.65"/>
        <path d="M16.782 12.4375V14.7188L12.6484 15.9375V13.7188L16.782 12.4375Z" fill="currentColor" fill-opacity="0.65"/>
        <path d="M16.782 18.4688V20.7188L12.6484 21.9688V19.7188L16.782 18.4688Z" fill="currentColor" fill-opacity="0.65"/>
        <path d="M17.0302 24.25V26.8125L12.1113 28.2812V25.75L17.0302 24.25Z" fill="currentColor" fill-opacity="0.65"/>
        <path d="M16.782 30.5312V32.7812L12.6484 34.0625V31.8125L16.782 30.5312Z" fill="currentColor" fill-opacity="0.65"/>
        <path d="M16.782 36.375V38.6875L12.6484 39.9375V37.6875L16.782 36.375Z" fill="currentColor" fill-opacity="0.65"/>
        <path d="M17.0302 42.2188V44.7812L12.1113 46.2812V43.7188L17.0302 42.2188Z" fill="currentColor" fill-opacity="0.65"/>
        <path d="M24.801 6V9.375L18.6421 11.25V7.90625L24.801 6Z" fill="currentColor" fill-opacity="0.7"/>
        <path d="M24.4706 12.2812V15.375L19.3037 16.9688V13.875L24.4706 12.2812Z" fill="currentColor" fill-opacity="0.7"/>
        <path d="M24.4706 18.3125V21.375L19.3037 22.9687V19.875L24.4706 18.3125Z" fill="currentColor" fill-opacity="0.7"/>
        <path d="M24.801 24.125V27.5L18.6421 29.3438V25.9688L24.801 24.125Z" fill="currentColor" fill-opacity="0.7"/>
        <path d="M24.4706 30.4062V33.5L19.3037 35.0625V31.9687L24.4706 30.4062Z" fill="currentColor" fill-opacity="0.7"/>
        <path d="M24.4706 36.25V39.3437L19.3037 40.9062V37.8437L24.4706 36.25Z" fill="currentColor" fill-opacity="0.7"/>
        <path d="M24.801 42.0625V45.4375L18.6421 47.3125V43.9688L24.801 42.0625Z" fill="currentColor" fill-opacity="0.7"/>
        <path d="M32.9442 5.4375V9.84375L26.0825 11.9688V7.5625L32.9442 5.4375Z" fill="currentColor" fill-opacity="0.8"/>
        <path d="M32.6132 12.0625V15.75L26.7437 17.5313V13.8125L32.6132 12.0625Z" fill="currentColor" fill-opacity="0.8"/>
        <path d="M32.6132 17.8125V21.5313L26.7437 23.2813V19.5938L32.6132 17.8125Z" fill="currentColor" fill-opacity="0.8"/>
        <path d="M32.9442 23.5312V27.9375L26.0825 30.0312V25.625L32.9442 23.5312Z" fill="currentColor" fill-opacity="0.8"/>
        <path d="M32.6132 30.125V33.875L26.7437 35.5938V31.9063L32.6132 30.125Z" fill="currentColor" fill-opacity="0.8"/>
        <path d="M32.6132 36V39.7187L26.7437 41.5V37.7812L32.6132 36Z" fill="currentColor" fill-opacity="0.8"/>
        <path d="M32.9442 41.5V45.9062L26.0825 48V43.5938L32.9442 41.5Z" fill="currentColor" fill-opacity="0.8"/>
        <path d="M41.2524 3.21875V9.25L33.936 11.5625V5.9375C36.4712 4.83334 38.9099 3.92709 41.2524 3.21875Z" fill="currentColor" fill-opacity="0.9"/>
        <path d="M41.2524 9.875V15.0938L33.936 17.4375V12.1875L41.2524 9.875Z" fill="currentColor" fill-opacity="0.9"/>
        <path d="M41.2524 15.75V21.0312L33.936 23.375V18.0938L41.2524 15.75Z" fill="currentColor" fill-opacity="0.9"/>
        <path d="M41.2524 21.6875V26.9062L33.936 29.25V24L41.2524 21.6875Z" fill="currentColor" fill-opacity="0.9"/>
        <path d="M41.2524 27.5625V32.9375L33.936 35.3125V29.9062L41.2524 27.5625Z" fill="currentColor" fill-opacity="0.9"/>
        <path d="M41.2524 33.5938V38.8438L33.936 41.25V35.9375L41.2524 33.5938Z" fill="currentColor" fill-opacity="0.9"/>
        <path d="M41.2524 39.5V45.125C38.3865 45.9583 35.9478 46.7604 33.936 47.5312V41.875L41.2524 39.5Z" fill="currentColor" fill-opacity="0.9"/>
        <path d="M60.9283 0C54.7557 0 48.4587 0.989594 42.0381 2.96875V8.90625C46.4196 7.51041 50.6358 6.52084 54.6867 5.9375V19.2812C50.1948 19.7812 45.9786 20.7188 42.0381 22.0938V26.125C46.585 24.4583 50.8011 23.4375 54.6867 23.0625V36.8125C50.0848 37.3125 45.8686 38.1354 42.0381 39.2812V44.9062C49.2581 43.0729 55.7891 42.1562 61.631 42.1562C68.6856 42.1562 74.5689 43.3229 79.2811 45.6562V3.4375C73.6872 1.14584 67.5696 0 60.9283 0ZM60.9696 5.46875C65.2408 5.46875 68.906 6.05209 71.9648 7.21875V20.3125C68.4099 19.4375 64.8001 19 61.1349 19L59.4815 19.0312V5.53125C59.9776 5.48958 60.4736 5.46875 60.9696 5.46875ZM61.0523 22.6875C65.048 22.6875 68.6856 23.2292 71.9648 24.3125V37.625C68.7406 36.875 65.1308 36.5 61.1349 36.5H59.4815V22.75C60.0327 22.7083 60.5563 22.6875 61.0523 22.6875Z" fill="currentColor" fill-opacity="0.97"/>
    </g>
    <defs>
        <clipPath id="clip0_17_126">
            <rect width="79.2809" height="48" fill="currentColor"/>
        </clipPath>
    </defs>
</svg>
